<svg width="35" height="26" viewBox="0 0 35 26" fill="none" xmlns="http://www.w3.org/2000/svg">
<g clip-path="url(#clip0_3481_1004)">
<path d="M7.83945 25.872V12.5474L3.70707 8.76686L0.00146484 6.66895V23.5206C0.00146484 24.8217 1.05561 25.872 2.35292 25.872H7.83945Z" fill="#4285F4"/>
<path d="M26.6504 25.8719H32.1369C33.4381 25.8719 34.4884 24.8176 34.4884 23.5204V6.66895L30.2912 9.07186L26.6504 12.5472V25.8719Z" fill="#34A853"/>
<path d="M7.83964 12.5472L7.27734 7.34088L7.83964 2.35791L17.2452 9.41213L26.6507 2.35791L27.2797 7.07186L26.6507 12.5472L17.2452 19.6014L7.83964 12.5472Z" fill="#EA4335"/>
<path d="M26.6504 2.35801V12.5473L34.4884 6.66889V3.53367C34.4884 0.625845 31.169 -1.03182 28.8452 0.712062L26.6504 2.35801Z" fill="#FBBC04"/>
<path d="M0.00146484 6.66895L3.6063 9.37268L7.83945 12.5474V2.35807L5.64468 0.712124C3.3168 -1.0319 0.00146484 0.625906 0.00146484 3.53359V6.66895Z" fill="#C5221F"/>
</g>
<defs>
<clipPath id="clip0_3481_1004">
<rect width="34.49" height="26" fill="white"/>
</clipPath>
</defs>
</svg>
