<svg width="52" height="52" viewBox="0 0 52 52" fill="none" xmlns="http://www.w3.org/2000/svg">
<rect width="52" height="52" rx="26" fill="white" fill-opacity="0.8"/>
<path d="M32.25 14.5C29.7388 14.5 27.51 15.4913 26 17.195C24.49 15.4913 22.2612 14.5 19.75 14.5C17.5628 14.5026 15.4659 15.3727 13.9193 16.9193C12.3727 18.4659 11.5026 20.5628 11.5 22.75C11.5 31.7925 24.7262 39.0175 25.2887 39.3213C25.5073 39.439 25.7517 39.5006 26 39.5006C26.2483 39.5006 26.4927 39.439 26.7113 39.3213C27.2738 39.0175 40.5 31.7925 40.5 22.75C40.4974 20.5628 39.6273 18.4659 38.0807 16.9193C36.5341 15.3727 34.4372 14.5026 32.25 14.5ZM31.5637 32.295C29.8228 33.7723 27.9618 35.1019 26 36.27C24.0382 35.1019 22.1772 33.7723 20.4362 32.295C17.7275 29.9713 14.5 26.4275 14.5 22.75C14.5 21.3576 15.0531 20.0223 16.0377 19.0377C17.0223 18.0531 18.3576 17.5 19.75 17.5C21.975 17.5 23.8375 18.675 24.6112 20.5675C24.7239 20.8434 24.9161 21.0795 25.1634 21.2457C25.4108 21.4118 25.702 21.5006 26 21.5006C26.298 21.5006 26.5892 21.4118 26.8366 21.2457C27.0839 21.0795 27.2761 20.8434 27.3888 20.5675C28.1625 18.675 30.025 17.5 32.25 17.5C33.6424 17.5 34.9777 18.0531 35.9623 19.0377C36.9469 20.0223 37.5 21.3576 37.5 22.75C37.5 26.4275 34.2725 29.9713 31.5637 32.295Z" fill="black"/>
</svg>
