<svg width="35" height="28" viewBox="0 0 35 28" fill="none" xmlns="http://www.w3.org/2000/svg">
<g clip-path="url(#clip0_3481_996)">
<path d="M34.2981 3.4098C33.0139 3.97882 31.6516 4.35227 30.2567 4.51774C31.7097 3.64693 32.8252 2.26796 33.3505 0.624935C31.9693 1.44451 30.4582 2.02198 28.8825 2.3324C27.5989 0.964955 25.7703 0.110352 23.7464 0.110352C19.8604 0.110352 16.7098 3.26082 16.7098 7.14652C16.7098 7.69808 16.7721 8.23504 16.892 8.75016C11.0442 8.45663 5.85949 5.65542 2.38897 1.39835C1.78342 2.43757 1.43643 3.64639 1.43643 4.93573C1.43643 7.37695 2.67875 9.53054 4.56667 10.7924C3.44927 10.7575 2.35645 10.4557 1.37949 9.91223C1.37914 9.9417 1.379 9.97122 1.37909 10.0008C1.37909 13.41 3.80451 16.2539 7.0233 16.9003C5.98714 17.1821 4.9003 17.2233 3.84577 17.0209C4.7411 19.8163 7.33974 21.8505 10.4187 21.9075C8.01054 23.7946 4.97649 24.9196 1.67999 24.9196C1.11195 24.9196 0.551953 24.8862 0.00146484 24.8212C3.11536 26.8177 6.81391 27.9825 10.7875 27.9825C23.7301 27.9825 30.8074 17.2607 30.8074 7.96254C30.8074 7.65736 30.8006 7.35391 30.787 7.05221C32.1644 6.05627 33.3534 4.82285 34.2981 3.4098Z" fill="#55ACEE"/>
</g>
<defs>
<clipPath id="clip0_3481_996">
<rect width="34.3" height="28" fill="white"/>
</clipPath>
</defs>
</svg>
