<svg width="37" height="26" viewBox="0 0 37 26" fill="none" xmlns="http://www.w3.org/2000/svg">
<g clip-path="url(#clip0_3481_991)">
<path d="M36.1621 4.05528C35.95 3.27146 35.5363 2.55688 34.9621 1.98269C34.3879 1.4085 33.6734 0.994733 32.8896 0.7826C30.02 0 18.4711 0 18.4711 0C18.4711 0 6.92163 0.0236888 4.05209 0.806289C3.26827 1.01843 2.55369 1.43222 1.97952 2.00644C1.40536 2.58065 0.991636 3.29526 0.77956 4.07911C-0.0884068 9.17771 -0.425107 16.9468 0.803393 21.8414C1.01549 22.6253 1.42922 23.3398 2.00339 23.914C2.57755 24.4882 3.29212 24.902 4.07593 25.1141C6.94546 25.8967 18.4947 25.8967 18.4947 25.8967C18.4947 25.8967 30.0437 25.8967 32.9131 25.1141C33.6969 24.902 34.4115 24.4883 34.9857 23.9141C35.5599 23.3399 35.9737 22.6253 36.1858 21.8414C37.1013 16.7356 37.3834 8.9713 36.1621 4.05528Z" fill="#FF0000"/>
<path d="M14.7954 18.4975L24.3761 12.9482L14.7954 7.39893V18.4975Z" fill="white"/>
</g>
<defs>
<clipPath id="clip0_3481_991">
<rect width="36.98" height="26" fill="white"/>
</clipPath>
</defs>
</svg>
